<svg
    id="eoLr3XAUR1z1"
    xmlns="http://www.w3.org/2000/svg"
    xmlns:xlink="http://www.w3.org/1999/xlink"
    viewBox="0 0 48.468754 54.664119"
    shape-rendering="geometricPrecision"
    text-rendering="geometricPrecision"
    project-id="193d0a7940e441bbb768cb8440cce4a1"
    export-id="9cc08202e85a49939138bede9943c0d9"
    cached="false"
>
<style
    ><![CDATA[
    #eoLr3XAUR1z4_tr {
        animation: eoLr3XAUR1z4_tr__tr 4000ms linear 1 normal forwards;
    }
    @keyframes eoLr3XAUR1z4_tr__tr {
        0% {
            transform: translate(61.367861px, 41.751204px) rotate(360deg);
        }
        5% {
            transform: translate(61.367861px, 41.751204px) rotate(-10deg);
        }
        7.5% {
            transform: translate(61.367861px, 41.751204px) rotate(0deg);
        }
        100% {
            transform: translate(61.367861px, 41.751204px) rotate(0deg);
        }
    }
    #eoLr3XAUR1z4_ts {
        animation: eoLr3XAUR1z4_ts__ts 4000ms linear 1 normal forwards;
    }
    @keyframes eoLr3XAUR1z4_ts__ts {
        0% {
            transform: scale(0, 0);
        }
        5% {
            transform: scale(1.05, 1.05);
        }
        7.5% {
            transform: scale(1, 1);
        }
        100% {
            transform: scale(1, 1);
        }
    }
    #eoLr3XAUR1z5_to {
        animation: eoLr3XAUR1z5_to__to 4000ms linear 1 normal forwards;
    }
    @keyframes eoLr3XAUR1z5_to__to {
        0% {
            transform: translate(46.523085px, 22.970592px);
        }
        20% {
            transform: translate(46.523085px, 22.970592px);
        }
        27.5% {
            transform: translate(45.483027px, 25.016749px);
        }
        42.5% {
            transform: translate(45.483027px, 25.016749px);
        }
        50% {
            transform: translate(49.970641px, 21.470593px);
        }
        60% {
            transform: translate(49.970641px, 21.470593px);
        }
        67.5% {
            transform: translate(46.523085px, 22.970592px);
        }
        100% {
            transform: translate(46.523085px, 22.970592px);
        }
    }
    #eoLr3XAUR1z5_tr {
        animation: eoLr3XAUR1z5_tr__tr 4000ms linear 1 normal forwards;
    }
    @keyframes eoLr3XAUR1z5_tr__tr {
        0% {
            transform: rotate(360deg);
        }
        2.5% {
            transform: rotate(360deg);
        }
        7.5% {
            transform: rotate(-10deg);
        }
        10% {
            transform: rotate(0deg);
        }
        100% {
            transform: rotate(0deg);
        }
    }
    #eoLr3XAUR1z5_ts {
        animation: eoLr3XAUR1z5_ts__ts 4000ms linear 1 normal forwards;
    }
    @keyframes eoLr3XAUR1z5_ts__ts {
        0% {
            transform: scale(0, 0);
        }
        2.5% {
            transform: scale(0, 0);
        }
        7.5% {
            transform: scale(1.05, 1.05);
        }
        10% {
            transform: scale(1, 1);
        }
        100% {
            transform: scale(1, 1);
        }
    }
    #eoLr3XAUR1z6_to {
        animation: eoLr3XAUR1z6_to__to 4000ms linear 1 normal forwards;
    }
    @keyframes eoLr3XAUR1z6_to__to {
        0% {
            transform: translate(76.213726px, 22.970592px);
        }
        20% {
            transform: translate(76.213726px, 22.970592px);
        }
        27.5% {
            transform: translate(75.305655px, 21.470593px);
        }
        42.5% {
            transform: translate(75.305655px, 21.470593px);
        }
        50% {
            transform: translate(78.625854px, 23.304151px);
        }
        60% {
            transform: translate(78.625854px, 23.304151px);
        }
        67.5% {
            transform: translate(76.213726px, 22.970592px);
        }
        100% {
            transform: translate(76.213726px, 22.970592px);
        }
    }
    #eoLr3XAUR1z6_tr {
        animation: eoLr3XAUR1z6_tr__tr 4000ms linear 1 normal forwards;
    }
    @keyframes eoLr3XAUR1z6_tr__tr {
        0% {
            transform: rotate(360deg);
        }
        5% {
            transform: rotate(360deg);
        }
        10% {
            transform: rotate(-10deg);
        }
        12.5% {
            transform: rotate(0deg);
        }
        100% {
            transform: rotate(0deg);
        }
    }
    #eoLr3XAUR1z6_ts {
        animation: eoLr3XAUR1z6_ts__ts 4000ms linear 1 normal forwards;
    }
    @keyframes eoLr3XAUR1z6_ts__ts {
        0% {
            transform: scale(0, 0);
        }
        5% {
            transform: scale(0, 0);
        }
        10% {
            transform: scale(1.05, 1.05);
        }
        12.5% {
            transform: scale(1, 1);
        }
        100% {
            transform: scale(1, 1);
        }
    }
    #eoLr3XAUR1z7_tr {
        animation: eoLr3XAUR1z7_tr__tr 4000ms linear 1 normal forwards;
    }
    @keyframes eoLr3XAUR1z7_tr__tr {
        0% {
            transform: translate(61.367826px, 41.751194px) rotate(360deg);
        }
        5% {
            transform: translate(61.367826px, 41.751194px) rotate(-10deg);
        }
        7.5% {
            transform: translate(61.367826px, 41.751194px) rotate(0deg);
        }
        100% {
            transform: translate(61.367826px, 41.751194px) rotate(0deg);
        }
    }
    #eoLr3XAUR1z7_ts {
        animation: eoLr3XAUR1z7_ts__ts 4000ms linear 1 normal forwards;
    }
    @keyframes eoLr3XAUR1z7_ts__ts {
        0% {
            transform: scale(0, 0);
        }
        5% {
            transform: scale(1.05, 1.05);
        }
        7.5% {
            transform: scale(1, 1);
        }
        100% {
            transform: scale(1, 1);
        }
    }
    #eoLr3XAUR1z8_to {
        animation: eoLr3XAUR1z8_to__to 4000ms linear 1 normal forwards;
    }
    @keyframes eoLr3XAUR1z8_to__to {
        0% {
            transform: translate(63.394px, -46.6662px);
        }
        20% {
            transform: translate(63.394px, -46.6662px);
        }
        27.5% {
            transform: translate(62.353942px, -44.620043px);
        }
        42.5% {
            transform: translate(62.353942px, -44.620043px);
        }
        50% {
            transform: translate(66.841556px, -48.166199px);
        }
        60% {
            transform: translate(66.841556px, -48.166199px);
        }
        67.5% {
            transform: translate(63.394px, -46.6662px);
        }
        100% {
            transform: translate(63.394px, -46.6662px);
        }
    }
    #eoLr3XAUR1z8 {
        animation: eoLr3XAUR1z8_c_o 4000ms linear 1 normal forwards;
    }
    @keyframes eoLr3XAUR1z8_c_o {
        0% {
            opacity: 0;
        }
        10% {
            opacity: 0;
        }
        12.5% {
            opacity: 1;
        }
        100% {
            opacity: 1;
        }
    }
    #eoLr3XAUR1z9_to {
        animation: eoLr3XAUR1z9_to__to 4000ms linear 1 normal forwards;
    }
    @keyframes eoLr3XAUR1z9_to__to {
        0% {
            transform: translate(93.0846px, -46.6662px);
        }
        20% {
            transform: translate(93.0846px, -46.6662px);
        }
        27.5% {
            transform: translate(92.176529px, -48.166199px);
        }
        42.5% {
            transform: translate(92.176529px, -48.166199px);
        }
        50% {
            transform: translate(95.496726px, -46.332641px);
        }
        60% {
            transform: translate(95.496726px, -46.332641px);
        }
        67.5% {
            transform: translate(93.0846px, -46.6662px);
        }
        100% {
            transform: translate(93.0846px, -46.6662px);
        }
    }
    #eoLr3XAUR1z9 {
        animation: eoLr3XAUR1z9_c_o 4000ms linear 1 normal forwards;
    }
    @keyframes eoLr3XAUR1z9_c_o {
        0% {
            opacity: 0;
        }
        10% {
            opacity: 0;
        }
        12.5% {
            opacity: 1;
        }
        100% {
            opacity: 1;
        }
    }
    #eoLr3XAUR1z10_to {
        animation: eoLr3XAUR1z10_to__to 4000ms linear 1 normal forwards;
    }
    @keyframes eoLr3XAUR1z10_to__to {
        0% {
            offset-distance: 0%;
        }
        20% {
            offset-distance: 0%;
        }
        27.5% {
            offset-distance: 21.794588%;
        }
        42.5% {
            offset-distance: 21.794588%;
        }
        50% {
            offset-distance: 69.832931%;
        }
        60% {
            offset-distance: 71.879512%;
        }
        67.5% {
            offset-distance: 100%;
        }
        100% {
            offset-distance: 100%;
        }
    }
    #eoLr3XAUR1z10 {
        animation: eoLr3XAUR1z10_c_o 4000ms linear 1 normal forwards;
    }
    @keyframes eoLr3XAUR1z10_c_o {
        0% {
            opacity: 0;
        }
        10% {
            opacity: 0;
        }
        12.5% {
            opacity: 1;
        }
        100% {
            opacity: 1;
        }
    }
    #eoLr3XAUR1z11_to {
        animation: eoLr3XAUR1z11_to__to 4000ms linear 1 normal forwards;
    }
    @keyframes eoLr3XAUR1z11_to__to {
        0% {
            offset-distance: 0%;
        }
        20% {
            offset-distance: 0%;
        }
        27.5% {
            offset-distance: 21.088587%;
        }
        42.5% {
            offset-distance: 21.088587%;
        }
        50% {
            offset-distance: 70.100087%;
        }
        60% {
            offset-distance: 71.510606%;
        }
        67.5% {
            offset-distance: 100%;
        }
        100% {
            offset-distance: 100%;
        }
    }
    #eoLr3XAUR1z11 {
        animation: eoLr3XAUR1z11_c_o 4000ms linear 1 normal forwards;
    }
    @keyframes eoLr3XAUR1z11_c_o {
        0% {
            opacity: 0;
        }
        10% {
            opacity: 0;
        }
        12.5% {
            opacity: 1;
        }
        100% {
            opacity: 1;
        }
    }
    #eoLr3XAUR1z12_to {
        animation: eoLr3XAUR1z12_to__to 4000ms linear 1 normal forwards;
    }
    @keyframes eoLr3XAUR1z12_to__to {
        0% {
            transform: translate(72.3612px, 38.2924px);
        }
        20% {
            transform: translate(72.3612px, 38.2924px);
        }
        25% {
            transform: translate(74.028243px, 38.743498px);
        }
        30% {
            transform: translate(74.861765px, 38.969047px);
        }
        42.5% {
            transform: translate(74.861765px, 38.969047px);
        }
        50% {
            transform: translate(70.45835px, 36.755882px);
        }
        60% {
            transform: translate(70.45835px, 36.755882px);
        }
        67.5% {
            transform: translate(72.3612px, 38.2924px);
        }
        100% {
            transform: translate(72.3612px, 38.2924px);
        }
    }
    #eoLr3XAUR1z12_tr {
        animation: eoLr3XAUR1z12_tr__tr 4000ms linear 1 normal forwards;
    }
    @keyframes eoLr3XAUR1z12_tr__tr {
        0% {
            transform: rotate(0deg);
        }
        20% {
            transform: rotate(0deg);
        }
        25% {
            transform: rotate(3.333333deg);
        }
        30% {
            transform: rotate(5deg);
        }
        42.5% {
            transform: rotate(5deg);
        }
        50% {
            transform: rotate(-5deg);
        }
        60% {
            transform: rotate(-5deg);
        }
        67.5% {
            transform: rotate(0deg);
        }
        100% {
            transform: rotate(0deg);
        }
    }
    #eoLr3XAUR1z12_ts {
        animation: eoLr3XAUR1z12_ts__ts 4000ms linear 1 normal forwards;
    }
    @keyframes eoLr3XAUR1z12_ts__ts {
        0% {
            transform: scale(1, 0);
        }
        10% {
            transform: scale(1, 0);
        }
        12.5% {
            transform: scale(1, 1);
        }
        15% {
            transform: scale(1, 0);
        }
        17.5% {
            transform: scale(1, 1);
        }
        25% {
            transform: scale(1, 1);
        }
        27.5% {
            transform: scale(1, 0);
        }
        30% {
            transform: scale(1, 1);
        }
        45% {
            transform: scale(1, 1);
        }
        47.5% {
            transform: scale(1, 0);
        }
        50% {
            transform: scale(1, 1);
        }
        70% {
            transform: scale(1, 1);
        }
        72.5% {
            transform: scale(1, 0);
        }
        100% {
            transform: scale(1, 0);
        }
    }
    #eoLr3XAUR1z13_to {
        animation: eoLr3XAUR1z13_to__to 4000ms linear 1 normal forwards;
    }
    @keyframes eoLr3XAUR1z13_to__to {
        0% {
            transform: translate(50.3756px, 38.2924px);
        }
        20% {
            transform: translate(50.3756px, 38.2924px);
        }
        25% {
            transform: translate(52.042644px, 38.743498px);
        }
        30% {
            transform: translate(52.876166px, 38.969047px);
        }
        42.5% {
            transform: translate(52.876166px, 38.969047px);
        }
        50% {
            transform: translate(48.472749px, 36.755882px);
        }
        60% {
            transform: translate(48.472749px, 36.755882px);
        }
        67.5% {
            transform: translate(50.3756px, 38.2924px);
        }
        100% {
            transform: translate(50.3756px, 38.2924px);
        }
    }
    #eoLr3XAUR1z13_tr {
        animation: eoLr3XAUR1z13_tr__tr 4000ms linear 1 normal forwards;
    }
    @keyframes eoLr3XAUR1z13_tr__tr {
        0% {
            transform: rotate(0deg);
        }
        20% {
            transform: rotate(0deg);
        }
        25% {
            transform: rotate(3.333333deg);
        }
        30% {
            transform: rotate(5deg);
        }
        42.5% {
            transform: rotate(5deg);
        }
        50% {
            transform: rotate(-5deg);
        }
        60% {
            transform: rotate(-5deg);
        }
        67.5% {
            transform: rotate(0deg);
        }
        100% {
            transform: rotate(0deg);
        }
    }
    #eoLr3XAUR1z13_ts {
        animation: eoLr3XAUR1z13_ts__ts 4000ms linear 1 normal forwards;
    }
    @keyframes eoLr3XAUR1z13_ts__ts {
        0% {
            transform: scale(1, 0);
        }
        10% {
            transform: scale(1, 0);
        }
        12.5% {
            transform: scale(1, 1);
        }
        15% {
            transform: scale(1, 0);
        }
        17.5% {
            transform: scale(1, 1);
        }
        25% {
            transform: scale(1, 1);
        }
        27.5% {
            transform: scale(1, 0);
        }
        30% {
            transform: scale(1, 1);
        }
        45% {
            transform: scale(1, 1);
        }
        47.5% {
            transform: scale(1, 0);
        }
        50% {
            transform: scale(1, 1);
        }
        70% {
            transform: scale(1, 1);
        }
        72.5% {
            transform: scale(1, 0);
        }
        100% {
            transform: scale(1, 0);
        }
    }
    #eoLr3XAUR1z14 {
        animation: eoLr3XAUR1z14_c_o 4000ms linear 1 normal forwards;
    }
    @keyframes eoLr3XAUR1z14_c_o {
        0% {
            opacity: 0;
        }
        75% {
            opacity: 0;
        }
        100% {
            opacity: 1;
        }
    }
    #eoLr3XAUR1z23_tr {
        animation: eoLr3XAUR1z23_tr__tr 4000ms linear 1 normal forwards;
    }
    @keyframes eoLr3XAUR1z23_tr__tr {
        0% {
            transform: translate(135.33781px, 207.03926px) rotate(720deg);
            animation-timing-function: cubic-bezier(0.415, 0.08, 0.115, 0.955);
        }
        100% {
            transform: translate(135.33781px, 207.03926px) rotate(345.974026deg);
        }
    }
    #eoLr3XAUR1z23 {
        animation: eoLr3XAUR1z23_f_p 4000ms linear 1 normal forwards;
    }
    @keyframes eoLr3XAUR1z23_f_p {
        0% {
            fill: #fff;
        }
        100% {
            fill: #e8ecf5;
        }
    }
    #eoLr3XAUR1z24_tr {
        animation: eoLr3XAUR1z24_tr__tr 4000ms linear 1 normal forwards;
    }
    @keyframes eoLr3XAUR1z24_tr__tr {
        0% {
            transform: translate(11.12px, 29.9px) rotate(-720deg);
            animation-timing-function: cubic-bezier(0.415, 0.08, 0.115, 0.955);
        }
        100% {
            transform: translate(11.12px, 29.9px) rotate(-345.974026deg);
        }
    }
    #eoLr3XAUR1z18 {
        display: inline !important;
        height: 61.25px !important;
        fill: rgb(17, 35, 70) !important;
        fill-opacity: 1 !important;
        filter: none !important;
        mask: none !important;
        opacity: 0.2 !important;
        stroke: none !important;
        stroke-opacity: 1 !important;
        stroke-width: 0px !important;
        transform: matrix(1, 0, 0, 1, -8.375042, -5.249997) !important;
        transform-origin: 0px 0px !important;
        visibility: visible !important;
        width: 175px !important;
        x: 0px !important;
        y: 0px !important;
    }
    #eoLr3XAUR1z19 {
        d: path(
            "M100.296,8.840967h1.86105v8.05706h-1.86105v-8.05706Zm.93793-1.32776c-.33752,0-.62035-.10561-.84864-.31684-.22829-.22129-.34251-.49288-.34251-.81477s.11422-.58843.34251-.79967c.22829-.22129.51112-.33193.84864-.33193s.62035.10562.84864.31685c.22829.20117.34251.45766.34251.76949c0,.33195-.11422.61358-.34251.84494-.21832.22129-.5013.33193-.84864.33193Zm17.50762,4.76743v4.61696h-1.86105v-4.37556c0-.70411-.16378-1.23218-.49133-1.58425-.32755-.3621-.7941-.54316-1.39949-.54316-.68501,0-1.2259.21123-1.62294.63369-.39705.41241-.59557,1.0109-.59557,1.7955v4.07379h-1.86105v-11.19538h1.86105v4.07379c.30776-.33195.68486-.58341,1.13162-.75441.45658-.18106.96271-.27159,1.51855-.27159c1.00259,0,1.80651.29673,2.41206.8902.60539.59346.90817,1.4736.90817,2.64042h-.00002Zm-11.14925,4.72426c-.87342,0-1.54846-.23136-2.02483-.69407-.47652-.46269-.71478-1.13663-.71478-2.02181v-3.87763h-1.3102v-1.50882h1.3102v-1.84075h1.8612v1.84075h2.12908v1.50882h-2.12908v3.83237c0,.39231.09428.69407.28283.9053.18855.20117.46156.30176.81888.30176.41684,0,.76433-.11065,1.04218-.33195l.52109,1.34285c-.21832.18106-.48634.31685-.80392.40738-.30776.09053-.63531.13579-.98265.13579v.00001Zm-13.2957-.10591l-2.05474-5.55243-2.08436,5.55243h-1.78672l-2.91819-8.05706h1.75696l2.09931,5.94472l2.18861-5.94472h1.56327l2.14403,5.97489l2.15884-5.97489h1.65271l-2.93315,8.05706h-1.78657Zm-13.58488-3.98495c0,.13076-.00982.31685-.02976.55826h-6.23841c.10923.59347.39221,1.06623.84879,1.41829.4664.34199,1.04218.51299,1.72704.51299.87342,0,1.59303-.2917,2.15884-.87511l.99761,1.16179c-.35731.43252-.80906.75943-1.35492.98072s-1.16138.33195-1.84625.33195c-.87342,0-1.64274-.17603-2.30766-.52808-.66507-.35206-1.18118-.83991-1.54846-1.46355-.35731-.63369-.53605-1.34787-.53605-2.14251c0-.78458.17375-1.48869.52109-2.11234.35731-.63371.84864-1.12657,1.47398-1.47863s1.33015-.52808,2.11427-.52808c.77415,0,1.464.17603,2.06955.52808.61537.34199,1.09189.82985,1.42926,1.46354.34749.62364.52109,1.34788.52109,2.1727l-.00001-.00002Zm-4.01989-2.65551c-.59557,0-1.1017.18106-1.5187.54318-.40687.35206-.6551.82481-.74439,1.41829h4.51122c-.07932-.58341-.32256-1.05617-.72943-1.41829-.40702-.36212-.9133-.54318-1.5187-.54318Zm-7.67538,6.63907v-1.04108c-.30776.38223-.68985.66889-1.14643.86002-.44676.19112-.94291.28668-1.48893.28668-.76433,0-1.45403-.17101-2.06955-.51301-.60539-.34199-1.08191-.82481-1.42925-1.44846-.34749-.63369-.52109-1.35793-.52109-2.17268s.17359-1.53397.52109-2.1576c.34734-.62364.82386-1.10646,1.42925-1.44846.61552-.34201,1.30522-.51301,2.06955-.51301.52607,0,1.00743.09053,1.44421.27159s.8089.45265,1.11666.81477v-4.13414h1.86105v11.19538h-1.78656Zm-.35731-2.70078c.20834-.38223.31259-.82481.31259-1.32774s-.10425-.94553-.31259-1.32776c-.2085-.38223-.49133-.67394-.84864-.87511-.35746-.21125-.75935-.31685-1.2061-.31685-.4466,0-.84864.10561-1.20595.31685-.35731.20117-.64014.49288-.84864.87511s-.31259.82481-.31259,1.32776.1041.94551.31259,1.32774.49132.67897.84864.8902c.35731.20118.75935.30176,1.20595.30176.44676,0,.84864-.10058,1.2061-.30176.35731-.21123.64014-.50796.84864-.8902ZM56.93698,8.749727c1.1712,0,2.06456.28667,2.67993.86002.62534.56329.93793,1.41829.93793,2.56499v4.72257h-1.75681v-.98072c-.22829.35206-.55584.62363-.98265.81475-.41699.18106-.92312.27159-1.5187.27159s-1.11666-.10059-1.56327-.30176c-.44671-.21125-.79411-.49791-1.04225-.86003-.23823-.37217-.35733-.78961-.35733-1.25231c0-.72424.26304-1.30262.7891-1.73514.536-.44259,1.37467-.66388,2.51626-.66388h2.05459v-.1207c0-.56329-.16876-.99581-.50628-1.29757-.32755-.30178-.81888-.45265-1.47398-.45265-.4466,0-.88837.0704-1.32501.21123-.42681.14083-.78911.33696-1.08691.58844l-.72956-1.37302c.41689-.32189.91812-.56832,1.50373-.73932s1.20595-.2565,1.8612-.2565l.00001.00001Zm-.25322,6.88017c.46655,0,.8784-.10562,1.23587-.31685.36714-.22129.62519-.53312.77415-.93545v-.93547h-1.92073c-1.07194,0-1.60784.35709-1.60784,1.07126c0,.34199.13386.61357.40188.81475s.6403.30176,1.11666.30176h.00001Zm-10.69116.06065h-.86354l-3.42441-5.7033v6.91036h-1.8462v-10.56169h1.59309l4.13907,7.00089l4.06463-7.00089h1.59309l.01488,10.56169h-1.8313l-.0149-7.00089-3.42441,5.79383ZM109.33381,29.33985v15.15h-3.372v-1.962c-.57764.71189-1.32435,1.2678-2.172,1.617-.90563.36793-1.87555.55151-2.853.54-1.37977.02378-2.74245-.30785-3.957-.963-1.13745-.62625-2.07375-1.56255-2.7-2.7-1.30391-2.56373-1.30391-5.59627,0-8.16.6281-1.13606,1.56394-2.0719,2.7-2.7c1.21546-.65275,2.57751-.98423,3.957-.963.92501-.00857,1.84259.16578,2.7.513.8172.33509,1.54983.84741,2.145,1.5v-.762c0-.28643.11378-.56114.31633-.76367s.47724-.31633.76367-.31633l2.472-.03Zm-4.767,11.01c1.70241-1.9736,1.70241-4.8964,0-6.87-1.79985-1.74394-4.65915-1.74394-6.459,0-1.68467,1.98016-1.68467,4.88984,0,6.87.84101.87157,2.01145,1.34672,3.222,1.308c1.21374.03854,2.38799-.43377,3.237-1.302v-.006Zm17.94,3.324c-.4506.35546-.96927.61479-1.524.762-.61408.17233-1.2492.25816-1.887.255-1.41013.09088-2.79902-.37927-3.864-1.308-.9622-1.0234-1.45181-2.403-1.35-3.804v-13.59h2.469c.28643,0,.56114.11378.76367.31633s.31633.47724.31633.76367v2.379h4.047v2.853h-4.047v7.2c-.04376.61441.15433,1.2216.552,1.692.40613.41048.96838.62774,1.545.597.22613.00135.45196-.01672.675-.054.80958-.16952,1.6251.26156,1.941,1.026l.363.912Zm5.079.027c-1.20043-.63362-2.19844-1.59212-2.88-2.766-1.3796-2.49392-1.3796-5.52208,0-8.016.68541-1.16705,1.68279-2.11975,2.88-2.751c2.61457-1.32565,5.70443-1.32565,8.319,0c1.19702.63151,2.19433,1.58416,2.88,2.751c1.3796,2.49392,1.3796,5.52208,0,8.016-.68182,1.17368-1.67976,2.13211-2.88,2.766-2.61457,1.32565-5.70443,1.32565-8.319,0Zm7.392-3.369c1.70241-1.9736,1.70241-4.8964,0-6.87-1.79985-1.74394-4.65915-1.74394-6.459,0-1.68467,1.98016-1.68467,4.88984,0,6.87.84101.87157,2.01145,1.34672,3.222,1.308c1.21059.04404,2.38438-.42048,3.237-1.281v-.027Zm17.022-11.16v3.372c-.27077-.05406-.54592-.08318-.822-.087-1.19439-.06706-2.36247.36798-3.222,1.2-.83467.95959-1.25439,2.2112-1.167,3.48v7.353h-3.552v-15.15h2.298c.28643,0,.56113.11379.76367.31633s.31633.47724.31633.76367v1.134c1.014-1.588,2.809-2.382,5.385-2.382Zm-107.022,15.042c-.99952-.24447-1.95011-.65737-2.811-1.221l.621-1.233c.3744-.7399,1.2508-1.07278,2.022-.768.37389.15524.75654.28847,1.146.399.91807.26884,1.86939.4072,2.826.411c2.118,0,3.179-.557,3.183-1.671.01432-.51063-.31898-.96614-.81-1.107-.84397-.28199-1.7129-.4829-2.595-.6-1.03337-.14877-2.05419-.3744-3.054-.675-.77526-.24876-1.47221-.69547-2.022-1.296-.61143-.71083-.9214-1.63215-.864-2.568-.02956-1.38298.6493-2.68527,1.8-3.453c1.44674-.93234,3.1502-1.38576,4.869-1.296c1.05397.00022,2.10457.11896,3.132.354.90209.18897,1.76874.51902,2.568.978l-.675,1.296c-.363.73034-1.21602,1.07232-1.983.795-.9848-.3605-2.02631-.54137-3.075-.534-.81824-.04818-1.63519.11397-2.373.471-.48302.22293-.79719.70118-.81,1.233-.01041.54748.34149,1.03623.864,1.2.87464.31646,1.77934.54264,2.7.675c1.00825.15143,2.00395.37704,2.979.675.77042.2345,1.46702.66444,2.022,1.248.59601.69214.89656,1.59055.837,2.502.02092,1.37985-.67962,2.67062-1.848,3.405-1.50499.92728-3.25673,1.37412-5.022,1.281-1.22607-.00259-2.44614-.17112-3.627-.501Zm44.883-14.874v12.858c0,5.336-2.724,8.004-8.172,8.004-1.40084.00811-2.79608-.17765-4.146-.552-1.17835-.30549-2.28055-.85199-3.237-1.605l1.026-1.713c.30567-.49262.95204-.6455,1.446-.342.51805.29338,1.06493.53264,1.632.714.99571.32459,2.03673.48864,3.084.486c1.664,0,2.884-.378,3.66-1.134.84612-.94702,1.26781-2.19906,1.167-3.465v-.795c-.61114.66419-1.36796,1.17763-2.211,1.5-.91436.34924-1.88627.52327-2.865.513-1.35633.0185-2.69615-.29893-3.9-.924-1.14224-.59206-2.09694-1.49066-2.757-2.595-.68212-1.15978-1.02996-2.48573-1.005-3.831-.02691-1.34077.32116-2.66242,1.005-3.816.65985-1.09557,1.61266-1.98501,2.751-2.568c1.20751-.61258,2.54617-.9215,3.9-.9c1.02537-.01399,2.04386.16934,3,.54.88145.34534,1.65934.91145,2.259,1.644v-.936c0-.28643.11379-.56114.31633-.76367s.47724-.31633.76367-.31633l2.283-.003Zm-4.782,10.263c.86632-.80774,1.34014-1.95125,1.299-3.135.03647-1.17094-.43625-2.30022-1.296-3.096-1.9293-1.58787-4.7127-1.58787-6.642,0-.85642.7974-1.32577,1.92647-1.287,3.096-.04421,1.18189.4251,2.3251,1.287,3.135c1.92186,1.60535,4.71714,1.60535,6.639,0Zm-12.057-10.278l-5.892,13.743c-.36888.86087-1.21443,1.41985-2.151,1.422h-1.902l5.763-13.404.3-.675c.28294-.65223.92704-1.07338,1.638-1.071l2.244-.015Zm-10.785,13.263l-5.889-13.236h2.511c.71819-.00121,1.36666.42953,1.644,1.092l3.492,8.046-1.758,4.098Z"
        ) !important;
        display: inline !important;
        fill: rgb(255, 255, 255) !important;
        fill-opacity: 1 !important;
        filter: none !important;
        mask: none !important;
        opacity: 0.8 !important;
        stroke: none !important;
        stroke-opacity: 1 !important;
        stroke-width: 1px !important;
        transform: none !important;
        transform-origin: 0px 0px !important;
        visibility: visible !important;
    }
    #eoLr3XAUR1z20 {
        display: inline !important;
        fill: rgb(0, 0, 0) !important;
        fill-opacity: 1 !important;
        filter: none !important;
        mask: url(#eoLr3XAUR1z22) !important;
        opacity: 0.8 !important;
        stroke: none !important;
        stroke-opacity: 1 !important;
        stroke-width: 1px !important;
        transform: matrix(0.3, 0, 0, 0.3, -18.12243, -25.905895) !important;
        transform-origin: 0px 0px !important;
        visibility: visible !important;
    }
    #eoLr3XAUR1z21 {
        d: path(
            "M129.5,243.58426c-8.76,2.18-20.08,1.79-37.33-19.63-2.35828-2.9281-4.38181-6.36293-5.93416-10.02849c3.00814.97918,6.21933,1.50849,9.55416,1.50849c17.03246,0,30.84-13.80754,30.84-30.84c0-5.42003-1.39819-10.5135-3.85355-14.93939c22.54068-3.14789,48.24701-1.18662,56.01355,6.19939c12.32,11.73-14.11,59.03-49.29,67.73Z"
        ) !important;
        display: inline !important;
        fill: rgb(255, 255, 255) !important;
        fill-opacity: 1 !important;
        filter: none !important;
        mask: none !important;
        opacity: 1 !important;
        stroke: none !important;
        stroke-opacity: 1 !important;
        stroke-width: 1px !important;
        transform: none !important;
        transform-origin: 0px 0px !important;
        visibility: visible !important;
    }
    #eoLr3XAUR1z22 {
        display: inline !important;
        height: 400% !important;
        fill: rgb(0, 0, 0) !important;
        fill-opacity: 1 !important;
        filter: none !important;
        mask: none !important;
        opacity: 1 !important;
        stroke: none !important;
        stroke-opacity: 1 !important;
        stroke-width: 1px !important;
        transform: none !important;
        transform-origin: 0px 0px !important;
        visibility: visible !important;
        width: 400% !important;
        x: -150% !important;
        y: -150% !important;
    }
    #eoLr3XAUR1z23 {
        d: path(
            "M78.37454,207.03926c0-31.45994,25.50332-56.96327,56.96327-56.96327s56.96327,25.50332,56.96327,56.96327-25.50332,56.96327-56.96327,56.96327-56.96327-25.50332-56.96327-56.96327Zm89.23546-4.715c-.16775-.93858-1.05962-1.56734-2-1.41h-.06c-4.15414.71597-8.30501-1.28258-10.33588-4.97651s-1.49439-8.26953,1.33588-11.39349c.33036-.3301.51598-.77798.51598-1.245s-.18561-.9149-.51598-1.245l-.11-.1c-2.70671-2.31865-5.78705-4.16144-9.11-5.45-.43613-.17299-.92328-.16468-1.35326.02308s-.76719.53944-.93674.97692v.06c-1.40364,3.98681-5.18789,6.63916-9.41438,6.59848s-7.95898-2.76539-9.28562-6.77848c-.13404-.44903-.44162-.82607-.85458-1.04757s-.8972-.26916-1.34542-.13243h-.11c-3.26392,1.21388-6.31249,2.94242-9.03,5.12-.37331.28196-.619.70095-.6828,1.16441s.05956.93325.3428,1.30559l.1.12c2.68294,3.2243,3.03751,7.79124.8844,11.39101s-6.34454,5.44763-10.4544,4.60899c-.45624-.10445-.9353-.02286-1.33126.22672s-.67619.6466-.77874,1.10328v.09c-.55386,3.43784-.55386,6.94217,0,10.38.06433.46505.31181.88512.68739,1.16681s.84815.40164,1.31261.33319h.11c4.15414-.71597,8.30501,1.28258,10.33588,4.97651s1.49439,8.26953-1.33588,11.39349c-.33036.3301-.51598.77798-.51598,1.245s.18561.9149.51598,1.245l.11.1c2.70914,2.30768,5.7893,4.14023,9.11,5.42.43613.17299.92328.16468,1.35326-.02308s.76719-.53944.93674-.97692v-.06c1.40815-3.97311,5.18194-6.61524,9.39704-6.57914s7.94308,2.7425,9.28296,6.73914c.13404.44903.44162.82607.85458,1.04757s.8972.26916,1.34542.13243h.11c3.30375-1.22537,6.38706-2.97809,9.13-5.19.37164-.28659.61343-.70974.67164-1.17542s-.07198-.93533-.36164-1.30458l-.1-.12c-2.83001-3.19588-3.28744-7.84789-1.13412-11.53378s6.43037-5.57199,10.60412-4.67622c.93041.23341,1.87421-.33019,2.11-1.26v-.09c.5347-3.37898.5347-6.82102,0-10.2Zm-41.67,4.69c0-5.197,4.213-9.41,9.41-9.41s9.41,4.213,9.41,9.41-4.213,9.41-9.41,9.41-9.41-4.213-9.41-9.41Z"
        ) !important;
        display: inline !important;
        fill-opacity: 1 !important;
        filter: none !important;
        mask: none !important;
        opacity: 1 !important;
        stroke: none !important;
        stroke-opacity: 1 !important;
        stroke-width: 0px !important;
        transform: matrix(1, 0, 0, 1, -135.33781, -207.03926) !important;
        transform-origin: 0px 0px !important;
        visibility: visible !important;
    }
    #eoLr3XAUR1z23_tr {
        display: inline !important;
        fill: rgb(0, 0, 0) !important;
        fill-opacity: 1 !important;
        filter: none !important;
        mask: none !important;
        opacity: 1 !important;
        stroke: none !important;
        stroke-opacity: 1 !important;
        stroke-width: 1px !important;
        transform-origin: 0px 0px !important;
        visibility: visible !important;
    }
    #eoLr3XAUR1z24 {
        d: path(
            "M116.33,114.77l-3.64-2.18c-1.023263-.593162-1.652267-1.687247-1.65-2.87v-2c-.002267-1.182753.626737-2.276838,1.65-2.87l3.64-2.18c.762973-.435835,1.321342-1.157154,1.552062-2.005003s.114855-1.752643-.322062-2.514997v0l-1.74-3c-.935215-1.566004-2.961067-2.080293-4.53-1.15v0l-3.68,2.18c-1.024118.591275-2.285882.591275-3.31,0l-1.7-1c-1.023263-.593162-1.652267-1.687247-1.65-2.87v-4.38c0-.877867-.348731-1.719778-.969477-2.340523s-1.462656-.969477-2.340523-.969477h-3.47c-.877867,0-1.719778.348731-2.340523.969477s-.969477,1.462656-.969477,2.340523s0,.06,0,.09v4.35c.002267,1.182753-.626737,2.276838-1.65,2.87l-1.68,1c-1.024118.591275-2.285882.591275-3.31,0L80.56,94c-.767143-.448916-1.682599-.570435-2.540292-.337203s-1.585543.801616-2.019708,1.577203v0l-1.74,3c-.443418.7584-.567152,1.661967-.343945,2.511654s.775044,1.575787,1.533945,2.018346v0L79.1,105c1.023263.593162,1.652267,1.687247,1.65,2.87v2c.002267,1.182753-.626737,2.276838-1.65,2.87l-3.61,2.18c-1.578036.917936-2.114924,2.940216-1.2,4.52v0l1.74,3c.917936,1.578036,2.940216,2.114924,4.52,1.2v0l3.66-2.18c1.024118-.591275,2.285882-.591275,3.31,0l1.68,1c1.023263.593162,1.652267,1.687247,1.65,2.87v3.67c0,.877867.348731,1.719778.969477,2.340523s1.462656.969477,2.340523.969477h3.46c.877867,0,1.719778-.348731,2.340523-.969477s.969477-1.462656.969477-2.340523v0-3.77c-.002267-1.182753.626737-2.276838,1.65-2.87l1.7-1c1.024118-.591275,2.285882-.591275,3.31,0l3.66,2.18c1.5824.913239,3.605483.371662,4.52-1.21v0l1.74-3c.938839-1.568495.428452-3.601089-1.14-4.54Zm-20.49.91c-3.865993,0-7-3.134007-7-7s3.134007-7,7-7s7,3.134007,7,7v0c0,3.865993-3.134007,7-7,7v0Z"
        ) !important;
        display: inline !important;
        fill: rgb(255, 255, 255) !important;
        fill-opacity: 1 !important;
        filter: none !important;
        mask: none !important;
        opacity: 0.8 !important;
        stroke: none !important;
        stroke-opacity: 1 !important;
        stroke-width: 1px !important;
        transform: matrix(0.3, 0, 0, 0.3, -28.770844, -32.5395) !important;
        transform-origin: 0px 0px !important;
        visibility: visible !important;
    }
    #eoLr3XAUR1z24_tr {
        display: inline !important;
        fill: rgb(0, 0, 0) !important;
        fill-opacity: 1 !important;
        filter: none !important;
        mask: none !important;
        opacity: 1 !important;
        stroke: none !important;
        stroke-opacity: 1 !important;
        stroke-width: 1px !important;
        transform-origin: 0px 0px !important;
        visibility: visible !important;
    }
]]></style>
<g transform="translate(-37.1335 -13.7492)"><g
            id="eoLr3XAUR1z4_tr"
            transform="translate(61.367861,41.751204) rotate(360)"
        ><g id="eoLr3XAUR1z4_ts" transform="scale(0,0)"><path
                    d="M61.367854,15.089094c-.831275,0-1.357139.241977-2.154296.554687s-1.738538.739918-2.792969,1.25586c-2.108862,1.031884-4.658216,2.413147-7.169922,3.863281s-4.981619,2.966958-6.929688,4.277344c-.974034.655193-1.814981,1.257012-2.484375,1.791015s-1.142955.867985-1.558593,1.587891-.469893,1.297818-.597657,2.144531-.226244,1.87574-.30664,3.046875c-.160793,2.34227-.240235,5.240358-.240235,8.140625s.07944,5.796403.240235,8.138672c.0804,1.171135.178877,2.202115.30664,3.048828s.182019,1.422673.597657,2.142578.8892,1.055841,1.558593,1.589844s1.510341,1.135823,2.484375,1.791016c1.948069,1.310385,4.417982,2.82721,6.929688,4.277343s5.06106,2.829445,7.169922,3.861329c1.054431.515942,1.995811.945102,2.792969,1.257812s1.323021.554688,2.154296.554688s1.359093-.241978,2.15625-.554688s1.738539-.74187,2.792969-1.257812c2.108862-1.031884,4.656263-2.411195,7.167969-3.861329s4.981619-2.966958,6.929687-4.277343c.974035-.655193,1.816933-1.257013,2.486333-1.791016s1.141-.869938,1.55664-1.589844.46989-1.295864.59765-2.142578.2282-1.877693.3086-3.048828c.16079-2.342269.23828-5.238404.23828-8.138672s-.0775-5.798355-.23828-8.140625c-.0804-1.171135-.18083-2.200161-.3086-3.046875s-.18202-1.424625-.59765-2.144531-.88725-1.053887-1.55664-1.587891-1.512298-1.135823-2.486333-1.791015c-1.948068-1.310386-4.417981-2.82721-6.929687-4.277344s-5.059107-2.831397-7.167969-3.863281c-1.05443-.515942-1.995811-.943149-2.792969-1.25586s-1.324974-.554687-2.15625-.554687Zm0,3c-.202218,0,.385872.08299,1.060547.347656s1.562162.664906,2.570313,1.158203c2.016303.986594,4.522029,2.342862,6.986328,3.765625s4.893292,2.915097,6.755859,4.167969c.931284.626436,1.72252,1.19453,2.289063,1.646484s.931188.919267.830078.744141.12038.375179.22852,1.091797.20633,1.686907.2832,2.806641c.15373,2.239466.23047,5.088066.23047,7.933593s-.0767,5.694128-.23047,7.933594c-.0769,1.119733-.17507,2.090023-.2832,2.806641s-.329629,1.264969-.22852,1.089843-.263536.292186-.830078.744141-1.357779,1.020048-2.289063,1.646484c-1.862567,1.252873-4.29156,2.745206-6.755859,4.167969s-4.970025,2.779031-6.986328,3.765625c-1.008151.493297-1.895637.895493-2.570313,1.160156s-1.262765.347657-1.060547.347657-.383918-.08299-1.058593-.347657-1.562161-.666859-2.570313-1.160156c-2.016302-.986594-4.523982-2.342861-6.988281-3.765625s-4.891339-2.915096-6.753906-4.167969c-.931284-.626436-1.72252-1.194529-2.289063-1.646484s-.93314-.919267-.832031-.744141-.120383-.373226-.228516-1.089843-.204382-1.686908-.28125-2.806641c-.153735-2.239466-.232421-5.088067-.232422-7.933594s.07869-5.694127.232422-7.933593c.07687-1.119734.173117-2.090024.28125-2.806641s.329625-1.266923.228516-1.091797.265489-.292186.832031-.744141s1.357779-1.020048,2.289063-1.646484c1.862567-1.252872,4.289607-2.745205,6.753906-4.167969s4.971979-2.779031,6.988281-3.765625c1.008152-.493297,1.895637-.89354,2.570313-1.158203s1.260812-.347656,1.058593-.347656Z"
                    transform="translate(-61.367861,-41.751204)"
                    fill="#3a2050"
                    stroke-linecap="round"
                    stroke-linejoin="round"
                    stroke-miterlimit="1"
                /></g></g><g
            id="eoLr3XAUR1z5_to"
            transform="translate(46.523085,22.970592)"
        ><g id="eoLr3XAUR1z5_tr" transform="rotate(360)"><g
                    id="eoLr3XAUR1z5_ts"
                    transform="scale(0,0)"
                ><path
                        d="M48.06029,16.436188c-.38607.668693-5.914783,3.860697-6.686923,3.860697s-6.300853-3.192004-6.686922-3.860697-.38607-7.0527,0-7.721393s5.914783-3.860696,6.686922-3.860696s6.300853,3.192004,6.686923,3.860696.38607,7.052701,0,7.721393Z"
                        transform="translate(-41.373369,-12.575492)"
                        fill="#442868"
                        stroke="#3a2050"
                        stroke-width="3"
                        stroke-linecap="round"
                        stroke-linejoin="round"
                        stroke-miterlimit="1"
                    /></g></g></g><g
            id="eoLr3XAUR1z6_to"
            transform="translate(76.213726,22.970592)"
        ><g id="eoLr3XAUR1z6_tr" transform="rotate(360)"><g
                    id="eoLr3XAUR1z6_ts"
                    transform="scale(0,0)"
                ><path
                        d="M48.06029,16.436188c-.38607.668693-5.914783,3.860697-6.686923,3.860697s-6.300853-3.192004-6.686922-3.860697-.38607-7.0527,0-7.721393s5.914783-3.860696,6.686922-3.860696s6.300853,3.192004,6.686923,3.860696.38607,7.052701,0,7.721393Z"
                        transform="translate(-41.373369,-12.575492)"
                        fill="#442868"
                        stroke="#3a2050"
                        stroke-width="3"
                        stroke-linecap="round"
                        stroke-linejoin="round"
                        stroke-miterlimit="1"
                    /></g></g></g><g
            id="eoLr3XAUR1z7_tr"
            transform="translate(61.367826,41.751194) rotate(360)"
        ><g id="eoLr3XAUR1z7_ts" transform="scale(0,0)"><path
                    d="M61.36783,17.984767c-.134259.03917-.58057.136058-1.074002.327814-.684665.26607-1.585364.668827-2.608442,1.164748-2.046155.991842-4.590884,2.354842-7.091669,3.785173s-4.963964,2.930857-6.854107,4.190394c-.945073.629768-1.748229,1.20081-2.32316,1.655169-.414623.327669-.72378.663311-.82543.759009-.033.135182-.171598.567685-.250671,1.086821-.109734.720429-.207273,1.695786-.285281,2.821477-.156008,2.251378-.235987,5.115423-.235987,7.976086s.07998,5.724189.235987,7.975567c.07801,1.12569.175547,2.101047.285281,2.821477.07898.518511.217454.94958.250671,1.084743.101527.09555.410645.431211.82543.759008.574931.45436,1.378087,1.025401,2.32316,1.655169c1.890143,1.259538,4.353323,2.760063,6.854107,4.190394s5.045514,2.793851,7.091669,3.785693c1.023078.495921,1.923777.900237,2.608442,1.166307.49343.191757.939741.288646,1.074002.327813.134834-.03917.582668-.136057,1.076101-.327813.684665-.26607,1.585365-.670386,2.608442-1.166307c2.046156-.991842,4.58931-2.355361,7.090094-3.785693s4.965539-2.930856,6.855682-4.190394c.945072-.629768,1.748229-1.200809,2.32316-1.655169.414115-.327268.721875-.662322.823332-.758489.03301-.134636.171597-.566155.25067-1.085262.109731-.72043.209341-1.695787.28738-2.821477.156047-2.251378.233889-5.114903.233889-7.975567s-.07789-5.724708-.233889-7.976086c-.07801-1.125691-.177649-2.101048-.28738-2.821477-.07917-.519733-.218398-.952688-.251195-1.087341-.101578-.09632-.408854-.431347-.822807-.758489-.574931-.454359-1.378088-1.025401-2.32316-1.655169-1.890143-1.259537-4.354897-2.760062-6.855682-4.190394s-5.043938-2.793331-7.090094-3.785173c-1.023077-.495921-1.923777-.898678-2.608442-1.164748-.49343-.191757-.941264-.288647-1.076101-.327814Z"
                    transform="translate(-61.367826,-41.751194)"
                    fill="#442868"
                    stroke-width="1.01005"
                    stroke-linecap="round"
                    stroke-linejoin="round"
                    stroke-miterlimit="1"
                /></g></g><g
            id="eoLr3XAUR1z8_to"
            transform="translate(63.394,-46.6662)"
        ><path
                id="eoLr3XAUR1z8"
                d="M111.8205,32.841647c-.66869.38607-7.0527.386069-7.72139,0s-3.86069-5.914784-3.86069-6.686923s3.192-6.300853,3.86069-6.686923s7.0527-.386069,7.7214.000001s3.86069,5.914783,3.86069,6.686922-3.192,6.300853-3.8607,6.686923Z"
                transform="rotate(90) scale(0.645025,0.645025) translate(0,0)"
                opacity="0"
                fill="#6e4890"
                stroke="#442868"
                stroke-width="2.79059"
                stroke-linecap="round"
                stroke-linejoin="round"
                stroke-miterlimit="1"
            /></g><g
            id="eoLr3XAUR1z9_to"
            transform="translate(93.0846,-46.6662)"
        ><path
                id="eoLr3XAUR1z9"
                d="M111.8205,32.841647c-.66869.38607-7.0527.386069-7.72139,0s-3.86069-5.914784-3.86069-6.686923s3.192-6.300853,3.86069-6.686923s7.0527-.386069,7.7214.000001s3.86069,5.914783,3.86069,6.686922-3.192,6.300853-3.8607,6.686923Z"
                transform="rotate(90) scale(0.645025,0.645025) translate(0,0)"
                opacity="0"
                fill="#6e4890"
                stroke="#442868"
                stroke-width="2.79059"
                stroke-linecap="round"
                stroke-linejoin="round"
                stroke-miterlimit="1"
            /></g><g
            id="eoLr3XAUR1z10_to"
            style="offset-path:path('M61.368406,50.299567L64.492225,51.683328L64.492225,51.683328Q57.533512,50.682362,57.079914,50.391254C56.839629,50.122074,57.079914,50.391254,57.079914,50.391254C57.079914,50.391254,61.816994,50.661786,61.368406,50.299567');offset-rotate:0deg"
        ><path
                id="eoLr3XAUR1z10"
                d="M51.906649,51.308006c0-.946176,3.911466-7.721033,4.730878-8.194121s8.642344-.473087,9.461756.000001s4.730877,7.247945,4.730877,8.194121-3.911466,7.721033-4.730878,8.19412-8.642344.473088-9.461756,0-4.730877-7.247946-4.730877-8.194121Z"
                transform="scale(1.16181,1.16181) translate(-61.368404,-51.308008)"
                opacity="0"
                fill="#6e4890"
                stroke-width="2.58218"
                stroke-linecap="round"
                stroke-linejoin="round"
                stroke-miterlimit="1"
            /></g><g
            id="eoLr3XAUR1z11_to"
            style="offset-path:path('M61.36784,46.02881L65.962621,47.405689L65.962621,47.405689Q55.462925,45.650009,55.009322,45.358899C54.769041,45.089719,55.009322,45.358899,55.009322,45.358899C55.009322,45.358899,61.81643,46.391034,61.36784,46.02881');offset-rotate:0deg"
        ><path
                id="eoLr3XAUR1z11"
                d="M110.91584,38.379149c-.91896,0-5.05427-7.162567-4.59479-7.958408s8.7301-.795841,9.18958-.000001-3.67583,7.958409-4.59479,7.958409Z"
                transform="translate(-110.91584,-34.101509)"
                opacity="0"
                fill="#3a2050"
                stroke-width="3"
                stroke-linecap="round"
                stroke-linejoin="round"
                stroke-miterlimit="1"
            /></g><g
            id="eoLr3XAUR1z12_to"
            transform="translate(72.3612,38.2924)"
        ><g id="eoLr3XAUR1z12_tr" transform="rotate(0)"><g
                    id="eoLr3XAUR1z12_ts"
                    transform="scale(1,0)"
                ><ellipse
                        rx="1.9492"
                        ry="5.09307"
                        transform="translate(0,0)"
                        fill="#3a2050"
                        stroke-width="3"
                        stroke-linecap="round"
                        stroke-linejoin="round"
                        stroke-miterlimit="1"
                    /></g></g></g><g
            id="eoLr3XAUR1z13_to"
            transform="translate(50.3756,38.2924)"
        ><g id="eoLr3XAUR1z13_tr" transform="rotate(0)"><g
                    id="eoLr3XAUR1z13_ts"
                    transform="scale(1,0)"
                ><ellipse
                        rx="1.9492"
                        ry="5.09307"
                        transform="translate(0,0)"
                        fill="#3a2050"
                        stroke-width="3"
                        stroke-linecap="round"
                        stroke-linejoin="round"
                        stroke-miterlimit="1"
                    /></g></g></g></g><g
        id="eoLr3XAUR1z14"
        transform="translate(-37.1335 -13.7492)"
        opacity="0"
    ><path
            d="M46.250895,35.515159q0,.656167-.465667,1.121833t-1.12536.465667l-1.495777-.0035q-.105834,0-.186973-.07761-.07761-.08114-.07761-.186973v-4.7625q0-.105834.07761-.183444.08114-.08114.186973-.08114h1.499304q.546806,0,.934862.388057t.388054.93486q0,.631473-.49036,1.030113.754944.465666.754944,1.354666Zm-.79375-2.38478q0-.328083-.232834-.560916t-.560916-.232834h-1.234721v1.5875h1.234721q.328083,0,.560916-.232833t.232834-.560917Zm.264583,2.38478q0-.437446-.310444-.74789-.310443-.313973-.747889-.313973h-1.234721v2.116667l1.234721.0035q.437446,0,.747889-.310447t.310444-.747887Zm4.766029.52211q0,.06703-.04233.14464-.243417.423333-.73025.673804-.46214.243416-.97014.243416-.79375,0-1.368777-.525637-.596196-.543279-.596196-1.326446q0-.786694.596196-1.326444.575027-.525639,1.368777-.525639.289277,0,.60325.102306.352777.116417.702027.370417.433917.3175.433917.60325q0,.14111-.137583.215193l-2.674054,1.435807q.433916.448027,1.072443.448027.680861,0,1.104194-.472721.04939-.0635.148167-.194029t.215196-.130527q.105833,0,.1905.08114.08467.07761.08467.183443Zm-.663223-1.66511q-.430389-.44803-1.0795-.44803-.5715,0-.994833.370417-.440973.388056-.440973.9525q0,.22578.07761.43039l2.437696-1.305277Zm4.71664,2.462387q0,.264583-.264583.264583-.27164,0-.264584-.370416-.522113.370416-1.234723.370416-.65264,0-1.167693-.328083-.596196-.381-.596196-.994833q0-.610304.596196-.994834.515053-.328083,1.167693-.328083.71261,0,1.234723.370417v-.105834q0-.15875-.109363-.31397-.328083-.47978-1.12536-.47978-.45861,0-.906639.261057-.09172.05292-.15875.05292-.105834,0-.186971-.08114-.07761-.08467-.07761-.194027q0-.257527.553863-.433917.430387-.134056.77611-.134056.64911,0,1.167694.328083.596196.381.596196.994833l-.000003,2.116664Zm-.529167-1.058333q0-.250471-.239889-.462137-.201084-.17639-.47625-.25753-.23989-.07408-.518584-.07408-.818443,0-1.139473.500946-.09525.148167-.09525.292804t.09525.292806q.32103.500944,1.139473.500944.278694,0,.518584-.07408.278693-.08114.47625-.257527.239889-.211666.239889-.462139Zm4.942417-1.524q0,.105833-.08467.186973-.08114.07761-.1905.07761-.09878,0-.194029-.102304-.486834-.490363-1.033637-.490363t-.934863.388057-.388054.93486v1.5875q0,.264583-.264583.264583t-.264584-.264583v-3.175q0-.264583.264584-.264583.201083,0,.254.197556.0141.0635.01058.359833.543277-.557389,1.322917-.557389.402166,0,.800803.183446.423334.1905.635.50447.06703.09525.06703.169334Z"
            fill="#9878b8"
            stroke-width="3"
            stroke-linecap="round"
            stroke-linejoin="round"
            stroke-miterlimit="1"
        /><path
            d="M58.954419,37.10265v-5.080005h1.0795l1.778002,2.123726l1.770946-2.123726h1.086557v5.080005h-1.023057v-3.563059l-1.834446,2.19428-1.841502-2.187223v3.556002h-1.016Zm7.507115,0q-.26811,0-.49389-.134054-.225777-.141112-.366889-.366889-.134054-.22578-.134054-.49389v-2.102559q0-.26811.134054-.49389.141112-.225777.366889-.359833.22578-.141111.49389-.141111h2.159003q.275166,0,.500946.141111.225777.134056.359833.359833t.134057.49389v1.559279h-3.146782v.49389q0,.0141.0141.02822t.02822.0141h3.104449v1.00189h-3.153839Zm.0071-2.434169h2.144893v-.613833q0-.0141-.0141-.02822t-.02822-.0141h-2.060226q-.0141,0-.02822.0141t-.0141.02822l-.000027.613833Zm4.896557,2.434169q-.275167,0-.500944-.134054-.225779-.141112-.366889-.366889-.134057-.22578-.134057-.49389v-4.332118h1.00189v1.234725h1.559282v1.00189h-1.559282v2.046113q0,.0141.0141.02822t.02822.0141h1.516948v1.00189h-1.559282Zm3.305823,0q-.268113,0-.500946-.134054-.225777-.141112-.359834-.366889t-.134056-.49389v-1.55928h3.146782v-.493889q0-.0141-.0141-.02822t-.02822-.0141h-3.10449v-1.00189h3.153839q.275166,0,.500943.141111.22578.134056.359833.359833t.134057.49389v3.097392l-3.153808-.000014Zm.04939-1.00189h2.102559v-.656166h-2.144892v.613833q0,.0141.0141.02822t.02822.0141Zm4.674505,1.00189q-.268113,0-.49389-.134054-.225779-.141112-.36689-.366889-.134056-.22578-.134056-.49389v-4.445005h1.008946v4.395615q0,.0141.0141.02822t.02822.0141h.804333v1.00189h-.860777Z"
            fill="none"
            stroke="#9878b8"
            stroke-width="0.264583"
            stroke-linecap="round"
            stroke-linejoin="round"
            stroke-miterlimit="1"
        /></g>
</svg>
